<?xml version="1.0" standalone="no"?>
<!DOCTYPE svg PUBLIC "-//W3C//DTD SVG 20010904//EN"
 "http://www.w3.org/TR/2001/REC-SVG-20010904/DTD/svg10.dtd">
<svg version="1.0" xmlns="http://www.w3.org/2000/svg"
 width="2212.000000pt" height="688.000000pt" viewBox="0 0 2212.000000 688.000000"
 preserveAspectRatio="xMidYMid meet">

<g transform="translate(0.000000,688.000000) scale(0.100000,-0.100000)"
fill="#000000" stroke="none">
<path d="M0 3440 l0 -3440 11060 0 11060 0 0 3440 0 3440 -11060 0 -11060 0 0
-3440z m5088 1435 c3 -1034 -1 -1246 -34 -1595 -35 -375 -92 -637 -190 -883
-241 -599 -750 -1077 -1666 -1561 l-126 -67 -144 77 c-663 354 -1088 685
-1373 1065 -268 359 -403 745 -460 1314 -32 323 -35 474 -35 1571 l0 1114
2013 -2 2012 -3 3 -1030z m8652 249 l0 -767 33 27 c121 99 228 154 356 187
123 31 311 24 429 -16 257 -87 450 -299 523 -575 30 -112 32 -320 5 -424 -83
-316 -310 -551 -636 -660 -245 -81 -586 -96 -932 -40 l-107 18 -3 1375 -3
1376 -22 48 c-28 61 -66 78 -191 85 l-93 5 3 41 3 41 265 21 c146 12 289 22
318 23 l52 1 0 -766z m-6676 746 c423 -31 664 -155 786 -404 56 -113 73 -190
73 -316 0 -204 -55 -358 -170 -481 -103 -109 -190 -161 -388 -233 -15 -6 5
-16 81 -41 182 -60 303 -134 416 -254 87 -93 139 -178 175 -286 24 -71 27 -95
27 -215 -1 -154 -20 -243 -79 -367 -90 -191 -215 -310 -386 -367 -173 -58
-182 -59 -971 -63 l-728 -4 0 39 0 40 54 6 c128 16 206 121 241 323 22 128 22
2098 0 2227 -36 208 -109 305 -236 314 l-59 4 0 44 0 44 513 0 c281 0 575 -5
651 -10z m4646 -1066 c0 -628 4 -1074 9 -1072 5 2 124 105 265 230 278 248
316 292 316 376 0 24 -5 52 -11 64 -15 28 -86 58 -141 58 l-48 0 0 45 0 45
463 -2 462 -3 0 -40 0 -40 -110 -6 c-223 -13 -294 -60 -844 -562 l-43 -40 348
-349 c192 -193 387 -384 434 -425 93 -83 194 -139 269 -148 92 -12 91 -12 91
-55 l0 -40 -282 0 -283 0 -440 425 c-242 233 -443 424 -447 425 -11 0 -9 -491
2 -577 5 -40 17 -87 25 -103 20 -39 67 -68 120 -74 22 -3 61 -8 88 -11 l47 -6
0 -40 0 -39 -455 0 -455 0 0 39 c0 44 -15 38 133 56 63 8 105 38 130 93 l22
47 3 1245 c2 853 -1 1260 -8 1296 -11 52 -43 92 -85 109 -11 4 -63 10 -115 14
l-95 6 -3 43 c-3 35 0 42 15 43 10 0 133 11 273 24 140 12 276 23 303 24 l47
1 0 -1076z m7900 0 c0 -640 4 -1074 9 -1072 27 10 514 454 542 494 37 54 50
134 29 173 -16 31 -86 61 -142 61 l-48 0 0 45 0 45 463 -2 462 -3 0 -40 0 -40
-110 -6 c-85 -5 -124 -12 -173 -31 -129 -53 -192 -101 -530 -405 l-184 -166
348 -349 c192 -193 387 -383 432 -424 93 -82 198 -140 270 -149 93 -12 92 -12
92 -55 l0 -40 -282 0 -283 1 -445 428 -445 428 -3 -241 c-3 -259 7 -396 33
-446 20 -39 67 -68 120 -74 22 -3 61 -8 88 -11 l47 -6 0 -40 0 -39 -455 0
-455 0 0 39 c0 44 -15 38 133 56 63 8 105 38 130 93 l22 47 0 1275 c0 1215 -1
1277 -18 1312 -26 51 -72 70 -187 77 l-95 6 -3 43 c-3 35 0 42 15 43 10 0 133
11 273 24 140 12 276 23 303 24 l47 1 0 -1076z m-10895 829 c-36 -82 -47 -131
-41 -186 16 -158 133 -272 294 -285 l63 -5 -36 -37 c-155 -159 -415 -108 -508
99 -49 107 -18 260 70 348 61 61 177 109 158 66z m1465 -1218 l0 -185 128 103
c251 203 348 256 468 257 93 0 217 -37 292 -88 10 -7 0 -42 -48 -163 -34 -85
-65 -158 -70 -162 -4 -5 -52 14 -108 42 -138 69 -207 91 -291 91 -107 0 -190
-40 -313 -150 l-58 -52 0 -431 c1 -710 6 -728 199 -751 l91 -10 0 -38 0 -38
-455 0 -455 0 0 38 0 38 91 10 c143 17 175 54 190 222 11 132 11 1017 -1 1121
-17 151 -56 184 -222 190 l-108 3 0 42 0 43 228 17 c125 10 263 22 307 26 44
4 92 8 108 9 l27 1 0 -185z m-1200 -547 c0 -800 2 -832 54 -884 33 -33 88 -54
142 -54 17 0 46 -3 63 -6 28 -6 31 -10 31 -45 l0 -39 -470 0 -470 0 0 39 0 38
91 6 c123 8 175 33 209 102 l25 50 3 584 c3 625 0 668 -45 721 -41 49 -78 63
-185 68 l-98 5 0 38 c0 22 1 39 3 40 16 4 565 57 600 58 l47 1 0 -722z m7446
702 c151 -39 283 -117 386 -229 101 -109 155 -228 165 -368 l6 -83 -636 0
-636 0 4 -27 c2 -16 7 -71 10 -123 7 -121 38 -273 72 -358 64 -159 224 -343
360 -415 260 -136 492 -68 771 227 l82 87 0 -63 0 -63 -70 -76 c-118 -130
-239 -209 -387 -251 -68 -20 -101 -23 -253 -23 -159 0 -184 3 -272 27 -207 58
-381 175 -493 333 -55 78 -86 140 -121 245 -27 80 -28 95 -29 265 0 159 3 189
23 259 94 325 329 562 631 636 108 26 283 26 387 0z m1945 4 c46 -8 122 -26
169 -40 46 -13 98 -24 115 -24 35 0 89 30 105 59 8 16 21 21 55 21 l45 0 0
-295 0 -295 -38 0 c-37 0 -38 1 -51 50 -36 139 -147 297 -261 370 -220 141
-517 108 -691 -77 -76 -81 -118 -156 -155 -278 -25 -83 -28 -104 -28 -265 -1
-147 3 -188 21 -260 48 -188 134 -343 253 -453 129 -119 278 -169 442 -148
175 23 288 83 450 239 l108 105 0 -55 c0 -65 -23 -101 -118 -189 -168 -155
-391 -239 -637 -239 -346 0 -626 162 -768 446 -145 288 -117 675 69 956 122
184 302 312 519 369 90 23 281 25 396 3z m-7415 -2719 c30 -9 50 -11 52 -5 2
6 12 10 23 10 17 0 19 -8 19 -95 0 -88 -2 -95 -20 -95 -14 0 -22 10 -30 39
-14 54 -43 87 -95 106 -89 35 -175 -13 -175 -97 0 -67 26 -98 155 -183 169
-110 205 -157 205 -260 0 -85 -44 -156 -122 -196 -62 -32 -116 -34 -203 -8
-71 21 -78 21 -87 6 -5 -9 -18 -17 -28 -17 -19 0 -20 8 -20 115 l0 115 25 0
c21 0 25 -5 25 -30 0 -77 62 -142 146 -156 60 -9 130 23 149 70 21 50 19 89
-7 122 -30 38 -38 45 -143 115 -153 103 -185 145 -185 248 0 71 12 106 48 145
59 63 163 83 268 51z m3315 -1 c112 -33 199 -109 253 -223 28 -60 31 -75 31
-166 0 -92 -3 -106 -32 -167 -126 -267 -464 -328 -671 -121 -159 158 -160 416
-2 573 50 51 125 94 187 109 62 15 175 12 234 -5z m2825 1 c28 -8 78 -32 111
-54 239 -155 236 -517 -7 -679 -168 -112 -393 -84 -533 68 -79 85 -101 147
-102 280 0 93 3 112 27 162 48 102 137 180 253 220 62 22 184 23 251 3z m2825
-1 c112 -33 199 -109 253 -223 28 -60 31 -75 31 -166 0 -92 -3 -106 -32 -167
-126 -267 -464 -328 -671 -121 -159 158 -160 416 -2 573 50 51 125 94 187 109
62 15 175 12 234 -5z m-7563 -86 c2 -74 0 -88 -12 -88 -9 0 -22 15 -30 33 -26
62 -56 77 -162 77 l-94 0 0 -299 c0 -346 4 -370 68 -371 17 0 22 -6 22 -25 l0
-25 -145 0 -145 0 0 25 c0 20 5 25 23 25 13 0 32 9 43 21 18 20 19 43 22 336
l3 315 -99 -4 c-111 -3 -135 -15 -147 -69 -5 -20 -13 -29 -26 -29 -17 0 -19 8
-19 85 l0 85 348 -2 347 -3 3 -87z m-6208 62 c0 -13 -7 -20 -20 -20 -11 0 -29
-9 -40 -20 -19 -19 -20 -33 -20 -277 0 -236 2 -260 20 -298 28 -57 80 -85 158
-85 74 0 121 19 173 71 l40 40 -3 264 c-3 242 -5 265 -22 284 -11 12 -30 21
-43 21 -16 0 -23 6 -23 20 0 19 7 20 150 20 143 0 150 -1 150 -20 0 -14 -7
-20 -23 -20 -13 0 -32 -6 -43 -14 -18 -14 -19 -31 -22 -325 l-3 -311 25 -25
c14 -14 34 -25 46 -25 13 0 20 -7 20 -20 0 -19 -7 -20 -105 -20 l-105 0 0 46
0 46 -37 -30 c-65 -50 -104 -65 -184 -70 -95 -6 -162 15 -213 64 -70 68 -70
70 -76 370 -5 249 -7 274 -24 293 -11 12 -30 21 -43 21 -16 0 -23 6 -23 20 0
19 7 20 145 20 138 0 145 -1 145 -20z m1096 -267 l229 -287 3 184 c5 293 -7
350 -73 350 -18 0 -25 5 -25 20 0 19 7 20 125 20 118 0 125 -1 125 -20 0 -14
-7 -20 -21 -20 -35 0 -58 -19 -69 -58 -6 -22 -10 -167 -10 -359 0 -303 -1
-323 -18 -323 -11 0 -112 116 -277 321 l-260 321 -3 -58 c-2 -33 -2 -156 0
-275 3 -197 5 -219 22 -238 11 -12 31 -21 48 -21 23 0 28 -4 28 -25 l0 -25
-125 0 c-117 0 -125 1 -125 19 0 13 9 21 30 26 59 13 60 21 60 341 0 278 -1
292 -20 317 -12 15 -36 29 -55 33 -25 4 -35 11 -35 25 0 17 9 19 108 19 l108
0 230 -287z m814 268 c0 -12 -9 -20 -28 -24 -49 -10 -52 -32 -52 -350 0 -317
2 -328 55 -341 16 -4 25 -13 25 -26 0 -19 -7 -20 -145 -20 -135 0 -145 1 -145
19 0 12 11 21 32 27 55 16 58 31 58 341 0 327 -5 352 -67 353 -16 0 -23 6 -23
20 0 19 7 20 145 20 135 0 145 -1 145 -19z m410 0 c0 -13 -9 -20 -30 -25 -17
-3 -33 -12 -36 -21 -5 -12 149 -443 177 -495 7 -13 8 -13 13 0 3 8 42 112 86
230 90 241 95 269 43 285 -22 6 -33 15 -33 27 0 16 11 18 125 18 117 0 125 -1
125 -19 0 -13 -9 -21 -30 -26 -58 -13 -80 -55 -211 -403 -108 -289 -127 -332
-145 -332 -17 0 -31 29 -99 208 -188 500 -195 514 -255 527 -21 5 -30 13 -30
26 0 18 9 19 150 19 140 0 150 -1 150 -19z m1120 -3 c0 -13 3 -47 6 -75 6 -49
5 -53 -14 -53 -14 0 -24 10 -31 32 -23 65 -30 68 -183 68 l-138 0 0 -155 0
-155 113 0 c122 0 153 10 159 53 2 14 10 22 23 22 19 0 20 -8 23 -102 3 -98 2
-103 -18 -103 -13 0 -24 10 -31 27 -6 15 -16 31 -22 35 -7 4 -65 8 -130 8
l-118 0 3 -152 3 -153 137 0 c129 0 138 1 161 23 14 13 31 37 37 53 9 20 20
29 35 29 l23 0 -20 -80 -20 -80 -285 0 -284 0 3 23 c2 16 11 23 31 25 52 6 57
38 57 346 0 319 -5 345 -67 346 -16 0 -23 6 -23 20 0 20 7 20 285 20 l285 0 0
-22z m605 11 c131 -37 196 -160 149 -280 -17 -42 -82 -99 -112 -99 -11 0 -6
-10 15 -32 17 -18 59 -78 93 -133 68 -111 120 -170 156 -179 15 -4 24 -14 24
-26 0 -18 -7 -20 -89 -20 l-89 0 -45 68 c-25 37 -70 106 -101 155 -64 101 -99
127 -168 127 l-48 0 1 -112 c0 -140 12 -179 57 -192 21 -6 32 -15 32 -27 0
-18 -11 -19 -151 -19 -150 0 -150 0 -147 22 2 16 12 24 33 28 53 9 55 25 53
358 -3 287 -4 304 -22 318 -11 8 -30 14 -43 14 -16 0 -23 6 -23 20 0 19 7 20
193 20 109 0 209 -5 232 -11z m1345 -9 c0 -15 -7 -20 -24 -20 -15 0 -33 -11
-45 -26 -20 -26 -21 -38 -21 -318 0 -320 3 -334 58 -350 21 -6 32 -15 32 -27
0 -18 -11 -19 -150 -19 -139 0 -150 1 -150 19 0 12 11 21 32 27 55 16 58 31
58 341 0 327 -5 352 -67 353 -16 0 -23 6 -23 20 0 19 7 20 150 20 143 0 150
-1 150 -20z m1210 0 c0 -14 -7 -20 -24 -20 -35 0 -56 -10 -56 -26 0 -16 141
-243 152 -244 3 0 36 46 72 103 51 77 66 109 64 132 -2 22 -9 31 -25 33 -15 2
-23 10 -23 23 0 18 8 19 115 19 108 0 115 -1 115 -20 0 -12 -7 -20 -17 -20
-43 0 -81 -42 -182 -199 l-103 -162 4 -144 c5 -156 11 -176 64 -189 15 -4 24
-14 24 -26 0 -19 -7 -20 -145 -20 -136 0 -145 1 -145 19 0 14 9 21 31 26 48
11 59 50 59 208 l0 135 -95 148 c-103 160 -131 192 -176 201 -20 4 -29 12 -29
24 0 18 10 19 160 19 153 0 160 -1 160 -20z m2460 -55 c0 -67 -2 -75 -19 -75
-14 0 -23 11 -31 38 -19 58 -30 62 -167 62 l-124 0 3 -147 3 -148 96 -3 c117
-3 145 6 157 50 6 23 15 34 30 36 22 3 23 2 20 -115 -3 -110 -4 -118 -23 -118
-14 0 -21 8 -23 27 -6 47 -34 58 -154 58 l-108 0 0 -118 c0 -162 13 -201 68
-202 17 0 22 -6 22 -25 l0 -25 -151 0 c-150 0 -150 0 -147 23 2 14 11 23 24
25 12 2 30 12 40 24 18 19 19 42 19 330 0 295 -1 310 -19 324 -11 8 -30 14
-43 14 -16 0 -23 6 -23 20 0 20 7 20 275 20 l275 0 0 -75z m940 55 c0 -14 -7
-20 -23 -20 -13 0 -32 -9 -43 -21 -18 -20 -19 -42 -22 -326 -2 -221 0 -309 9
-319 9 -11 42 -14 140 -14 70 0 139 4 152 9 17 7 32 27 48 65 16 39 28 56 41
56 24 0 23 -19 -5 -110 l-24 -75 -287 -3 -287 -2 3 22 c2 17 11 24 31 26 52 6
57 37 57 362 0 277 -1 291 -20 310 -11 11 -31 20 -45 20 -18 0 -25 5 -25 20 0
19 7 20 150 20 143 0 150 -1 150 -20z m1775 -256 c121 -152 223 -278 228 -281
4 -2 7 104 7 236 0 228 -1 242 -20 261 -11 11 -31 20 -45 20 -18 0 -25 5 -25
20 0 19 7 20 125 20 118 0 125 -1 125 -20 0 -14 -7 -20 -24 -20 -13 0 -34 -9
-47 -19 l-24 -19 -3 -351 c-3 -329 -4 -351 -21 -351 -11 0 -112 116 -277 320
l-259 321 -3 -248 c-2 -136 0 -262 3 -280 8 -42 29 -63 66 -63 24 0 29 -4 29
-25 l0 -25 -125 0 c-115 0 -125 1 -125 19 0 12 11 21 32 27 55 16 58 30 58
345 0 273 -1 287 -20 312 -12 15 -36 29 -55 33 -25 4 -35 11 -35 25 0 17 9 19
108 19 l107 0 220 -276z m1068 247 c81 -32 168 -115 209 -199 31 -63 33 -73
33 -172 0 -96 -3 -110 -29 -164 -38 -76 -93 -131 -169 -167 -86 -39 -161 -49
-394 -49 l-203 0 0 25 c0 20 5 25 23 25 13 0 32 9 43 21 18 20 19 40 19 326
l0 305 -24 19 c-13 10 -32 19 -42 19 -13 0 -19 7 -19 21 0 20 3 20 248 17 231
-3 251 -5 305 -27z m1732 -247 c121 -152 223 -278 228 -281 4 -2 7 104 7 236
0 228 -1 242 -20 261 -11 11 -31 20 -45 20 -18 0 -25 5 -25 20 0 19 7 20 125
20 118 0 125 -1 125 -20 0 -14 -7 -20 -24 -20 -13 0 -34 -9 -47 -19 l-24 -19
-3 -351 c-3 -332 -4 -351 -21 -351 -12 0 -109 112 -277 320 l-259 321 -3 -248
c-2 -136 0 -262 3 -280 8 -42 29 -63 66 -63 24 0 29 -4 29 -25 l0 -25 -125 0
c-115 0 -125 1 -125 19 0 12 11 21 32 27 55 16 58 30 58 345 0 273 -1 287 -20
312 -12 15 -36 29 -55 33 -25 4 -35 11 -35 25 0 17 9 19 108 19 l107 0 220
-276z"/>
<path d="M1257 5508 c-14 -412 -8 -1679 8 -1928 41 -631 104 -928 264 -1255
230 -467 667 -860 1408 -1265 l133 -72 117 62 c406 215 775 475 1017 716 366
364 546 738 626 1299 51 351 53 424 57 1568 l4 1077 -1814 0 -1814 0 -6 -202z
m3541 -745 l2 -853 -1725 0 -1725 0 0 855 0 855 1723 -2 1722 -3 3 -852z
m-2818 -1278 l0 -325 305 0 305 0 0 -325 0 -325 -305 0 -305 0 0 -322 -1 -323
-35 40 c-78 88 -160 194 -217 280 -56 86 -146 254 -161 303 l-7 22 210 0 211
0 0 325 0 325 -294 0 -293 0 -7 73 c-16 165 -36 447 -36 510 l0 67 315 0 315
0 0 -325z m1470 -923 l0 -1247 -190 -107 -190 -106 -187 107 -188 106 -3 1248
-2 1247 380 0 380 0 0 -1248z m1350 1245 c0 -35 -33 -485 -40 -546 -5 -47 -10
-89 -10 -93 0 -5 -133 -8 -295 -8 l-295 0 0 -325 0 -325 -305 0 -305 0 0 325
0 325 305 0 305 0 0 325 0 325 320 0 c176 0 320 -1 320 -3z m-220 -1310 c0
-29 -101 -218 -178 -332 -83 -123 -215 -285 -232 -285 -11 0 -14 612 -3 623 3
4 98 7 210 7 163 0 203 -3 203 -13z m-1990 -883 l0 -236 -27 17 c-141 89 -371
269 -493 384 l-75 70 298 1 297 0 0 -236z m1515 195 c-110 -113 -397 -337
-542 -423 -10 -6 -13 43 -13 228 l0 236 297 0 297 0 -39 -41z"/>
<path d="M2590 5456 c0 -43 15 -84 41 -112 16 -18 18 -25 8 -53 -6 -17 -9 -61
-7 -96 3 -54 8 -69 33 -95 40 -42 84 -54 170 -46 84 8 98 -2 110 -74 7 -40 6
-43 -9 -31 -10 9 -49 14 -120 15 -126 1 -158 17 -166 82 l-5 39 -18 -40 c-25
-57 -36 -141 -26 -203 12 -74 44 -140 130 -262 92 -131 137 -226 145 -308 9
-84 -6 -102 -87 -102 -74 0 -104 -12 -124 -49 -14 -28 -21 -91 -10 -91 3 0 14
5 24 12 15 9 31 9 71 0 28 -7 70 -12 92 -12 36 0 46 6 77 41 20 22 66 71 104
108 37 37 67 72 67 78 0 6 -13 22 -30 36 -21 18 -26 27 -15 30 32 13 35 42 9
81 l-25 37 24 -6 c16 -4 30 -1 41 10 9 10 18 16 20 14 11 -13 37 -112 47 -180
15 -94 12 -98 -62 -110 -71 -11 -99 -39 -99 -98 0 -56 14 -85 24 -48 8 33 18
35 101 26 39 -4 95 -3 125 2 30 5 98 9 150 7 l95 -2 3 27 c5 38 -34 73 -89 81
-48 8 -99 25 -99 34 0 3 11 18 26 33 l25 26 -25 30 c-24 28 -24 29 -5 41 22
14 25 42 7 61 -11 10 -8 12 12 9 20 -2 29 -15 52 -77 40 -109 36 -107 169 -93
62 6 114 13 116 15 5 6 -70 190 -90 221 -17 25 -21 26 -115 26 -173 0 -303 56
-382 163 -41 56 -40 77 3 45 52 -40 152 -87 219 -103 68 -16 214 -20 222 -7 3
5 -12 58 -32 118 -58 169 -112 250 -197 295 -43 22 -47 23 -56 6 -21 -36 -65
-48 -169 -45 -74 2 -102 -1 -116 -12 -16 -14 -17 -12 -10 30 11 72 25 81 120
74 91 -6 133 8 169 58 25 33 33 118 18 173 -9 34 -8 42 9 60 33 35 55 145 30
145 -5 0 -40 -11 -77 -25 -63 -24 -72 -25 -118 -13 -27 7 -99 12 -160 12 -60
0 -133 -5 -160 -12 -46 -12 -55 -11 -118 13 -37 14 -72 25 -77 25 -6 0 -10
-15 -10 -34z m568 -202 c6 -42 -70 -78 -122 -58 -42 16 -4 70 54 77 54 6 65 3
68 -19z m-293 -9 c31 -30 31 -41 3 -49 -43 -11 -69 -6 -93 19 -39 38 -33 55
20 55 35 0 52 -6 70 -25z"/>
<path d="M1894 5199 c-1 -45 -10 -76 -33 -123 -47 -95 -43 -129 27 -215 34
-42 35 -44 17 -57 -13 -10 -53 -14 -137 -14 l-118 0 0 -32 c0 -42 37 -89 110
-138 32 -22 66 -50 74 -62 34 -49 6 -133 -52 -157 -30 -13 -52 -47 -52 -81 0
-19 8 -20 201 -20 l202 0 -7 33 c-3 19 -17 40 -33 52 -62 45 -83 75 -83 119 0
46 23 74 109 131 52 35 91 89 91 127 l0 28 -116 0 c-108 0 -154 9 -154 29 0 5
16 32 35 61 51 75 44 155 -25 290 -49 96 -55 99 -56 29z"/>
<path d="M4180 5205 c0 -47 -7 -75 -36 -135 -33 -70 -35 -80 -25 -116 6 -22
27 -59 46 -81 19 -23 35 -46 35 -52 0 -22 -43 -31 -150 -31 -121 0 -129 -4
-110 -56 15 -39 54 -79 117 -120 93 -60 107 -134 35 -193 -20 -17 -45 -37 -54
-46 -10 -8 -18 -28 -18 -45 l0 -30 200 0 c110 0 200 4 200 9 0 30 -26 73 -56
90 -36 22 -74 74 -74 104 0 35 30 75 79 106 85 55 147 138 126 170 -4 7 -50
11 -116 11 -106 0 -149 9 -149 31 0 6 14 30 31 55 39 58 45 98 24 170 -16 57
-77 189 -96 209 -5 5 -9 -14 -9 -50z"/>
<path d="M3055 3718 c-18 -45 -43 -142 -68 -268 -19 -99 -21 -145 -24 -832
l-4 -728 -33 0 c-18 0 -53 7 -76 15 -67 24 -70 22 -70 -40 l0 -54 38 -10 c20
-6 55 -14 77 -19 32 -6 41 -13 43 -32 2 -14 8 -30 14 -37 5 -7 11 -84 13 -173
3 -151 2 -160 -16 -160 -16 0 -18 -5 -12 -32 14 -75 50 -114 115 -124 55 -9
105 18 128 68 24 52 26 88 5 88 -13 0 -15 25 -15 165 0 103 4 165 10 165 6 0
10 13 10 29 0 28 3 29 90 51 l90 22 0 54 c0 61 -1 62 -76 39 -27 -8 -61 -15
-76 -15 l-28 0 0 658 c-1 361 -5 704 -10 762 -13 149 -32 280 -40 280 -3 0
-13 -33 -20 -72 -10 -56 -14 -252 -17 -851 -4 -846 -1 -797 -59 -783 l-25 7 4
742 c4 814 4 810 68 1001 23 68 27 92 18 102 -19 23 -39 16 -54 -18z"/>
<path d="M14028 4441 c-83 -27 -141 -64 -220 -141 l-69 -69 4 -568 c3 -596 4
-606 50 -674 40 -61 83 -74 242 -73 164 0 229 15 349 77 207 107 329 322 356
627 9 106 1 243 -19 330 -57 248 -205 430 -399 490 -83 26 -214 26 -294 1z"/>
<path d="M6588 5755 c-5 -5 -8 -293 -8 -642 l0 -633 193 0 c216 0 268 9 382
64 124 61 243 190 304 331 79 180 81 440 5 602 -37 78 -126 165 -206 203 -123
57 -201 71 -443 77 -121 3 -223 2 -227 -2z"/>
<path d="M6580 3838 c0 -644 11 -739 89 -817 56 -56 104 -66 316 -66 272 0
376 32 492 151 63 65 127 191 148 289 19 92 19 248 -1 338 -8 40 -38 119 -66
177 -44 92 -61 115 -142 195 -77 77 -106 99 -186 138 -148 73 -183 80 -432 85
l-218 4 0 -494z"/>
<path d="M16067 4489 c-65 -15 -130 -55 -184 -111 -78 -83 -115 -167 -147
-336 l-14 -72 464 0 464 0 0 58 c0 69 -30 192 -60 253 -50 97 -161 183 -271
208 -53 13 -199 12 -252 0z"/>
<path d="M14085 1821 c-93 -23 -155 -83 -196 -190 -29 -74 -31 -218 -4 -309
46 -159 170 -244 311 -214 132 27 211 139 222 314 9 154 -37 295 -116 355 -57
43 -146 61 -217 44z"/>
<path d="M16899 1817 c-85 -24 -143 -80 -180 -174 -33 -83 -33 -262 -1 -344
32 -80 73 -133 129 -166 41 -24 59 -28 123 -28 88 1 138 22 190 81 70 80 102
214 82 351 -25 177 -108 275 -244 288 -29 3 -73 -1 -99 -8z"/>
<path d="M19735 1821 c-93 -23 -155 -83 -196 -190 -29 -74 -31 -218 -4 -309
46 -159 170 -244 311 -214 132 27 211 139 222 314 9 154 -37 295 -116 355 -57
43 -146 61 -217 44z"/>
<path d="M9980 1640 l0 -160 79 0 c71 0 83 3 111 26 42 36 60 74 60 131 0 104
-66 163 -182 163 l-68 0 0 -160z"/>
<path d="M18650 1491 l0 -322 25 -24 c21 -22 33 -25 103 -25 116 0 177 21 237
84 70 71 89 132 83 269 -4 124 -31 189 -107 260 -58 54 -93 65 -233 74 l-108
6 0 -322z"/>
</g>
</svg>
