<?xml version="1.0" standalone="no"?>
<!DOCTYPE svg PUBLIC "-//W3C//DTD SVG 20010904//EN"
 "http://www.w3.org/TR/2001/REC-SVG-20010904/DTD/svg10.dtd">
<svg version="1.0" xmlns="http://www.w3.org/2000/svg"
 width="1654.000000pt" height="1116.000000pt" viewBox="0 0 1654.000000 1116.000000"
 preserveAspectRatio="xMidYMid meet">

<g transform="translate(0.000000,1116.000000) scale(0.100000,-0.100000)"
fill="#000000" stroke="none">
<path d="M13796 8749 c-61 -14 -154 -69 -185 -108 -64 -81 -88 -158 -98 -308
l-6 -103 -104 0 -103 0 0 -95 0 -95 105 0 105 0 0 -465 0 -465 120 0 120 0 0
465 0 465 145 0 145 0 0 95 0 95 -146 0 -147 0 5 93 c9 147 47 212 141 238 40
11 145 7 194 -7 26 -7 29 2 38 117 l6 76 -38 6 c-55 10 -251 7 -297 -4z"/>
<path d="M5102 8704 c-136 -69 -86 -274 67 -274 111 0 179 103 137 204 -29 70
-133 106 -204 70z"/>
<path d="M9400 8700 c-67 -35 -93 -113 -61 -184 28 -64 70 -88 144 -83 51 3
62 8 94 39 31 31 37 45 41 90 3 44 0 59 -20 88 -44 66 -128 88 -198 50z"/>
<path d="M10120 8628 c-19 -5 -65 -18 -102 -29 l-68 -20 0 -174 0 -175 -105 0
-105 0 0 -95 0 -95 105 0 105 0 0 -355 c0 -212 4 -374 11 -404 16 -74 58 -134
114 -161 61 -29 204 -38 329 -20 l88 12 -7 77 c-9 100 -15 123 -30 117 -7 -2
-44 -7 -81 -10 -88 -8 -131 7 -159 54 -19 33 -20 53 -23 363 l-3 327 145 0
146 0 0 95 0 95 -145 0 -145 0 0 205 c0 228 5 214 -70 193z"/>
<path d="M2334 8616 c-3 -8 -4 -265 -1 -572 3 -463 6 -568 19 -609 51 -170
133 -256 294 -311 104 -36 324 -46 449 -20 216 44 358 179 412 392 16 61 17
128 18 599 l0 530 -117 3 -118 3 0 -478 c0 -551 -5 -620 -52 -712 -55 -107
-147 -151 -314 -151 -177 0 -283 64 -323 195 -20 64 -21 89 -21 606 l0 539
-120 0 c-94 0 -122 -3 -126 -14z"/>
<path d="M4343 8240 c-105 -22 -205 -89 -256 -172 -17 -26 -31 -48 -32 -48 -1
0 0 48 3 107 l5 106 -159 -7 c-87 -3 -175 -9 -196 -13 l-38 -6 0 -72 0 -73 63
-7 c34 -4 72 -11 85 -16 l22 -9 0 -460 0 -460 115 0 115 0 0 273 c0 311 8 386
51 477 56 121 140 184 244 184 70 1 112 -20 141 -68 18 -29 19 -60 22 -448 l3
-418 119 0 120 0 0 430 c0 265 -4 448 -11 479 -20 95 -101 186 -188 211 -52
15 -179 21 -228 10z"/>
<path d="M6921 8239 c-132 -23 -263 -121 -328 -245 -94 -178 -98 -484 -10
-663 58 -117 147 -186 286 -222 139 -36 388 -20 536 34 44 16 44 11 25 125
-14 84 -2 80 -125 41 -55 -17 -97 -22 -195 -23 -112 -1 -131 2 -177 23 -99 44
-157 141 -164 271 l-4 65 359 3 358 2 -4 133 c-4 105 -9 144 -27 189 -49 125
-132 210 -246 248 -70 24 -206 33 -284 19z m174 -180 c79 -22 145 -119 145
-213 l0 -36 -236 0 -236 0 6 30 c11 58 47 127 85 164 62 60 145 80 236 55z"/>
<path d="M8167 8239 c-89 -21 -162 -81 -217 -179 l-30 -55 7 114 6 114 -159
-7 c-87 -3 -175 -9 -196 -13 l-38 -6 0 -72 0 -73 58 -7 c31 -3 67 -9 80 -12
l22 -5 0 -464 0 -464 119 0 119 0 5 308 c3 243 8 319 21 365 46 163 116 229
246 231 36 1 68 6 72 11 4 6 8 58 8 118 l0 107 -42 -1 c-24 -1 -60 -5 -81 -10z"/>
<path d="M8705 8236 c-137 -26 -238 -94 -287 -194 -33 -66 -33 -218 -1 -277
44 -83 104 -121 276 -182 56 -19 114 -44 129 -55 58 -41 72 -115 33 -174 -42
-65 -177 -90 -323 -60 -45 9 -88 19 -96 22 -11 4 -16 -10 -21 -63 -14 -148
-18 -135 50 -149 83 -18 276 -17 353 1 129 31 231 104 279 204 24 49 28 68 28
146 0 73 -4 98 -22 131 -41 77 -104 119 -255 172 -165 59 -208 92 -208 164 0
94 64 138 201 138 46 0 110 -6 141 -14 l57 -13 5 26 c3 14 6 57 8 95 l3 70
-30 8 c-58 15 -247 18 -320 4z"/>
<path d="M12620 8240 c-202 -38 -347 -164 -418 -362 -34 -95 -42 -292 -18
-408 53 -250 219 -380 486 -380 149 0 249 34 358 119 89 70 168 209 191 335
18 95 14 252 -8 338 -60 235 -207 352 -456 363 -49 2 -110 0 -135 -5z m197
-216 c53 -19 116 -88 138 -152 61 -179 26 -415 -78 -508 -56 -51 -100 -67
-182 -68 -131 0 -214 67 -256 207 -29 95 -24 287 9 361 32 70 66 112 116 141
76 45 162 51 253 19z"/>
<path d="M5030 8223 c-25 -1 -69 -5 -97 -9 l-53 -5 0 -75 c0 -69 1 -74 22 -74
12 0 50 -5 85 -11 l63 -11 0 -464 0 -464 120 0 120 0 0 560 0 560 -107 -2
c-60 -1 -128 -3 -153 -5z"/>
<path d="M5430 8224 c0 -4 93 -256 208 -561 l207 -553 125 2 124 3 123 325
c68 179 161 426 208 550 47 124 85 228 85 233 0 11 -248 9 -255 -3 -13 -21
-243 -677 -260 -742 l-18 -68 -73 218 c-41 119 -105 303 -142 407 l-68 190
-132 3 c-73 1 -132 -1 -132 -4z"/>
<path d="M9340 8223 c-25 -1 -69 -5 -97 -9 l-53 -5 0 -74 0 -73 58 -7 c31 -3
67 -9 80 -12 l22 -5 0 -464 0 -464 120 0 120 0 0 560 0 560 -102 -2 c-57 -1
-123 -3 -148 -5z"/>
<path d="M10600 8227 c0 -2 94 -254 209 -561 l208 -557 -23 -65 c-78 -214
-161 -294 -304 -294 -36 0 -79 4 -96 9 l-31 9 -12 -82 c-20 -142 -24 -133 72
-141 169 -14 290 26 392 129 110 112 122 137 423 936 121 322 224 593 227 603
7 16 -3 17 -123 17 l-130 0 -77 -217 c-99 -282 -185 -540 -185 -558 0 -38 -17
-8 -34 58 -16 63 -123 375 -216 630 l-32 87 -134 0 c-74 0 -134 -1 -134 -3z"/>
<path d="M12765 6609 c-209 -49 -383 -89 -387 -89 -5 0 -8 -218 -8 -485 l0
-485 -335 0 -335 0 0 -260 0 -260 335 0 335 0 0 -927 c0 -559 4 -964 10 -1018
48 -421 228 -619 630 -690 133 -23 431 -31 631 -15 163 12 487 54 497 65 5 4
-17 209 -50 460 l-10 81 -72 -13 c-144 -25 -378 -38 -478 -25 -117 14 -152 24
-211 62 -56 35 -100 101 -127 188 -35 112 -41 290 -38 1077 l3 750 478 3 477
2 0 260 0 260 -477 2 -478 3 -5 571 -5 571 -380 -88z"/>
<path d="M2330 4550 l0 -2120 390 0 390 0 2 1031 3 1032 260 -314 c143 -172
345 -416 448 -543 237 -289 305 -365 442 -488 477 -432 1022 -682 1685 -774
157 -21 611 -30 821 -15 198 14 399 42 597 82 148 29 357 83 380 98 10 6 0 67
-44 267 -31 142 -57 260 -58 261 -1 2 -41 -10 -88 -26 -233 -79 -543 -141
-803 -162 -544 -43 -1089 91 -1550 380 -362 227 -634 504 -1298 1322 l-37 46
611 699 c681 779 659 754 708 809 20 22 61 70 91 105 30 35 78 89 105 120 41
45 192 220 253 293 14 16 -7 17 -434 17 l-450 0 -105 -127 c-58 -71 -206 -247
-328 -393 -123 -146 -390 -465 -595 -710 -205 -245 -426 -509 -492 -587 l-119
-143 -3 980 -2 980 -390 0 -390 0 0 -2120z"/>
<path d="M6187 5609 c-685 -52 -1202 -438 -1396 -1041 -44 -139 -62 -247 -68
-406 l-6 -144 109 -110 c243 -246 480 -422 740 -549 77 -38 146 -69 153 -69 7
0 2 16 -14 43 -114 183 -172 407 -182 703 -9 279 26 475 119 664 45 91 64 117
142 195 74 74 107 99 176 133 243 119 567 119 809 1 206 -101 341 -324 341
-565 l0 -64 -222 0 c-254 0 -498 -12 -840 -40 -130 -11 -244 -20 -252 -20 -14
0 -16 -26 -16 -210 0 -115 3 -210 8 -210 4 0 474 -25 1045 -56 571 -31 1039
-55 1042 -53 11 11 28 285 28 449 1 198 -12 294 -58 453 -108 373 -386 657
-776 795 -238 84 -584 124 -882 101z"/>
<path d="M10125 5594 c-316 -49 -621 -202 -810 -406 -37 -40 -90 -107 -118
-150 -28 -42 -53 -76 -55 -74 -2 2 4 54 13 116 19 141 41 457 32 466 -24 25
-685 11 -1063 -21 -93 -8 -177 -15 -187 -15 -16 0 -17 -15 -15 -207 l3 -208
95 -7 c82 -6 305 -37 393 -54 l27 -6 0 -1299 0 -1299 390 0 390 0 0 803 c0
865 2 899 54 1078 107 366 374 641 699 719 101 25 292 27 385 5 177 -42 287
-153 339 -346 16 -59 17 -156 20 -1161 l4 -1098 390 0 390 0 -4 1183 c-3 1179
-3 1182 -25 1280 -53 230 -152 398 -306 513 -126 95 -292 160 -486 189 -121
19 -433 18 -555 -1z"/>
</g>
</svg>
